<?xml version="1.0" encoding="utf-8"?>
<!-- Generator: Adobe Illustrator 26.0.3, SVG Export Plug-In . SVG Version: 6.00 Build 0)  -->
<svg version="1.1" id="Layer_2" xmlns="http://www.w3.org/2000/svg" xmlns:xlink="http://www.w3.org/1999/xlink" x="0px" y="0px"
	 viewBox="0 0 496 496" style="enable-background:new 0 0 496 496;" xml:space="preserve">
<style type="text/css">
	.st0{display:none;}
	.st1{display:inline;}
	.st2{fill:#CCCCCC;}
	.st3{fill-rule:evenodd;clip-rule:evenodd;fill:#CCCCCC;}
</style>
<g class="st0">
	<g class="st1">
		<path class="st2" d="M271,269.1l86.2-121.2c2.3-3.3,0-7.8-4.1-7.8l-235.8,2.2c-0.9,0-1.8-0.2-2.6-0.7L26.9,89.5
			c-4.3-2.5-2.5-9.1,2.5-9.2L489.1,79l-0.3,0.3l-0.3,0.3L328,306.8c-1.5,2.2-4.5,2.7-6.7,1.3l-48.9-32
			C270,274.5,269.4,271.4,271,269.1z"/>
	</g>
	<g class="st1">
		<path class="st2" d="M225,226.9l-86.2,121.2c-2.3,3.3,0,7.8,4.1,7.8l235.8-2.2c0.9,0,1.8,0.2,2.6,0.7l87.9,52.1
			c4.3,2.5,2.5,9.1-2.5,9.2L6.9,417l0.3-0.3l0.3-0.3L168,189.2c1.5-2.2,4.5-2.7,6.7-1.3l48.9,32C226,221.5,226.6,224.6,225,226.9z"
			/>
	</g>
</g>
<g>
	<path class="st3" d="M84.3,455.6H16.8c-5.8,0-9.6-6.2-6.9-11.3l205-400.6c1-2,3-3.2,5.3-3.2h64.1c5.2,0,8.5,5.5,6.1,10.1
		L89.8,452.2C88.7,454.3,86.6,455.6,84.3,455.6z"/>
	<path class="st3" d="M280.1,455.6h-67.5c-5.8,0-9.6-6.2-6.9-11.3l205-400.6c1-2,3-3.2,5.3-3.2H480c5.2,0,8.5,5.5,6.1,10.1
		L285.5,452.2C284.5,454.3,282.4,455.6,280.1,455.6z"/>
</g>
</svg>
