<?xml version="1.0" encoding="utf-8"?>
<!-- Generator: Adobe Illustrator 26.0.3, SVG Export Plug-In . SVG Version: 6.00 Build 0)  -->
<svg version="1.1" id="Layer_2_00000023274390635226097750000014222719937784170395_"
	 xmlns="http://www.w3.org/2000/svg" xmlns:xlink="http://www.w3.org/1999/xlink" x="0px" y="0px" viewBox="0 0 496 496"
	 style="enable-background:new 0 0 496 496;" xml:space="preserve">
<style type="text/css">
	.st0{fill:#CCCCCC;}
</style>
<g>
	<g>
		<path class="st0" d="M271.4,269.5l87.8-123.4c2.3-3.4,0-7.9-4.2-7.9l-240.1,2.2c-0.9,0-1.8-0.2-2.6-0.7l-89.4-53
			c-4.4-2.5-2.5-9.3,2.5-9.4l468.1-1.3l-0.3,0.3l-0.3,0.3L329.5,307.9c-1.5,2.2-4.6,2.7-6.8,1.3l-49.8-32.6
			C270.4,275,269.8,271.8,271.4,269.5z"/>
	</g>
	<g>
		<path class="st0" d="M224.6,226.5l-87.8,123.4c-2.3,3.4,0,7.9,4.2,7.9l240.1-2.2c0.9,0,1.8,0.2,2.6,0.7l89.5,53
			c4.4,2.5,2.5,9.3-2.5,9.4L2.5,420.1l0.3-0.3l0.3-0.3l163.4-231.3c1.5-2.2,4.6-2.7,6.8-1.3l49.8,32.6
			C225.6,221,226.2,224.2,224.6,226.5z"/>
	</g>
</g>
</svg>
